<?xml version="1.0" encoding="UTF-8"?>
<!DOCTYPE svg PUBLIC "-//W3C//DTD SVG 1.1//EN" "http://www.w3.org/Graphics/SVG/1.1/DTD/svg11.dtd">
<!-- Creator: CorelDRAW 2021.5 -->
<svg xmlns="http://www.w3.org/2000/svg" xml:space="preserve" width="404" height="404" version="1.1" style="shape-rendering:geometricPrecision; text-rendering:geometricPrecision; image-rendering:optimizeQuality; fill-rule:evenodd; clip-rule:evenodd"
viewBox="0 0 13000 13000"
 xmlns:xlink="http://www.w3.org/1999/xlink"
 xmlns:xodm="http://www.corel.com/coreldraw/odm/2003">
 <defs>
  <style type="text/css">
   <![CDATA[
    .fil0 {fill:none}
    .fil1 {fill:#0000C5}
   ]]>
  </style>
 </defs>
 <g id="Слой_x0020_1">
  <metadata id="CorelCorpID_0Corel-Layer"/>
  <polygon class="fil0" points="-0,0 13000,0 13000,13000 -0,13000 "/>
  <g id="_2348725701408">
   <path class="fil1" d="M2038.43 1474.03l8978.09 0 -949.78 949.79 -7078.53 0 -949.78 -949.79zm385.39 1504.7l0 7029.7 -949.78 949.78 0 -8929.26 949.78 949.78zm551.55 7597.46l6954.27 0 949.78 949.78 -8853.84 0 949.79 -949.78zm7600.82 -472.76l0 -7069.75 949.78 -949.78 0 8969.31 -949.78 -949.78z"/>
   <path class="fil1" d="M7859.88 7004.23c344.21,70.75 560.44,293.63 545.45,703.79 -13.36,366.21 -235.13,663.62 -569.76,654.42l-810.53 2.49 0.73 -800.31 -982.12 5.89 0 1772.12 1693.52 -0.02c895.47,-28.47 1673.48,-826.36 1624.36,-1743.39 -27.93,-521.78 -252.73,-860.23 -505.1,-1118.23 -576.93,-589.84 -1946.13,-459.96 -2913.67,-459.96 -576.62,-0.03 -894.21,59.76 -1177.82,-281.72 -314.73,-439.99 -45.5,-1092.3 455.77,-1093.87l822.59 -0.85 1.32 792.46 946.64 -1.29 -3.95 -1772.66 -1589.56 -5.42c-1833.14,-30.07 -2364.7,2153.11 -976.53,3048.22 524.74,337.81 996.56,273.95 1677.65,274.8 305.48,0.39 1582.54,-45.78 1761.01,23.53z"/>
  </g>
 </g>
</svg>
